<svg width="30" height="30" viewBox="0 0 30 30" fill="none" xmlns="http://www.w3.org/2000/svg">
<path d="M3.75 9.75C3.75 7.6498 3.75 6.5997 4.15873 5.79754C4.51825 5.09193 5.09193 4.51825 5.79754 4.15873C6.5997 3.75 7.6498 3.75 9.75 3.75H20.25C22.3502 3.75 23.4003 3.75 24.2025 4.15873C24.9081 4.51825 25.4817 5.09193 25.8413 5.79754C26.25 6.5997 26.25 7.6498 26.25 9.75V16.5C26.25 18.6002 26.25 19.6503 25.8413 20.4525C25.4817 21.1581 24.9081 21.7317 24.2025 22.0913C23.4003 22.5 22.3502 22.5 20.25 22.5H17.1047C16.3246 22.5 15.9346 22.5 15.5615 22.5766C15.2305 22.6445 14.9102 22.7568 14.6094 22.9106C14.2702 23.0838 13.9656 23.3275 13.3565 23.8148L10.3747 26.2002C9.85459 26.6163 9.59453 26.8244 9.37567 26.8246C9.18534 26.8248 9.00528 26.7383 8.88654 26.5895C8.75 26.4185 8.75 26.0854 8.75 25.4194V22.5C7.58754 22.5 7.0063 22.5 6.52943 22.3722C5.23533 22.0255 4.22453 21.0147 3.87778 19.7206C3.75 19.2437 3.75 18.6625 3.75 17.5V9.75Z" stroke="#444444" stroke-width="2.5" stroke-linecap="round" stroke-linejoin="round"/>
</svg>
