<svg width="30" height="27" viewBox="0 0 30 27" fill="none" xmlns="http://www.w3.org/2000/svg">
<path d="M22.0592 23.1618C22.0592 21.6226 22.0592 20.8529 21.8692 20.2267C21.4415 18.8167 20.3381 17.7133 18.9281 17.2856C18.3018 17.0956 17.5322 17.0956 15.993 17.0956H10.4783C8.93906 17.0956 8.16945 17.0956 7.5432 17.2856C6.1332 17.7133 5.0298 18.8167 4.60208 20.2267C4.41211 20.8529 4.41211 21.6226 4.41211 23.1618M18.1989 8.27207C18.1989 11.0132 15.9768 13.2353 13.2356 13.2353C10.4945 13.2353 8.2724 11.0132 8.2724 8.27207C8.2724 5.53095 10.4945 3.30884 13.2356 3.30884C15.9768 3.30884 18.1989 5.53095 18.1989 8.27207Z" stroke="#F291D0" stroke-width="2" stroke-linecap="round" stroke-linejoin="round"/>
<g clip-path="url(#clip0_12_6001)">
<path d="M21.2711 17.6118C21.4523 17.3796 21.5429 17.2636 21.6577 17.1798C21.7594 17.1057 21.8745 17.0504 21.9972 17.0167C22.1358 16.9786 22.2868 16.9786 22.5888 16.9786H26.5005C27.3653 16.9786 27.7977 16.9786 28.128 17.1404C28.4185 17.2827 28.6548 17.5097 28.8028 17.7889C28.9711 18.1063 28.9711 18.5219 28.9711 19.353V22.5188C28.9711 23.3499 28.9711 23.7654 28.8028 24.0829C28.6548 24.3621 28.4185 24.5891 28.128 24.7314C27.7977 24.8931 27.3653 24.8931 26.5005 24.8931H22.5888C22.2868 24.8931 22.1358 24.8931 21.9972 24.8551C21.8745 24.8214 21.7594 24.7661 21.6577 24.6919C21.5429 24.6082 21.4523 24.4921 21.2711 24.26L19.0476 21.4108C18.9147 21.2405 18.8482 21.1553 18.8226 21.0618C18.8 20.9793 18.8 20.8925 18.8226 20.81C18.8482 20.7165 18.9147 20.6313 19.0476 20.461L21.2711 17.6118Z" fill="white"/>
<path d="M26.3976 19.4519L23.3093 22.4199M23.3093 19.4519L26.3976 22.4199M19.0476 21.4108L21.2711 24.26C21.4523 24.4921 21.5429 24.6082 21.6577 24.6919C21.7594 24.7661 21.8745 24.8214 21.9972 24.8551C22.1358 24.8931 22.2868 24.8931 22.5888 24.8931H26.5005C27.3653 24.8931 27.7977 24.8931 28.128 24.7314C28.4185 24.5891 28.6548 24.3621 28.8028 24.0829C28.9711 23.7654 28.9711 23.3499 28.9711 22.5188V19.353C28.9711 18.5219 28.9711 18.1063 28.8028 17.7889C28.6548 17.5097 28.4185 17.2827 28.128 17.1404C27.7977 16.9786 27.3653 16.9786 26.5005 16.9786H22.5888C22.2868 16.9786 22.1358 16.9786 21.9972 17.0167C21.8745 17.0504 21.7594 17.1057 21.6577 17.1798C21.5429 17.2636 21.4523 17.3796 21.2711 17.6118L19.0476 20.461C18.9147 20.6313 18.8482 20.7165 18.8226 20.81C18.8 20.8925 18.8 20.9793 18.8226 21.0618C18.8482 21.1553 18.9147 21.2405 19.0476 21.4108Z" stroke="#F291D0" stroke-width="2" stroke-linecap="round" stroke-linejoin="round"/>
</g>
<defs>
<clipPath id="clip0_12_6001">
<rect width="12.3529" height="11.8718" fill="white" transform="translate(17.6475 15)"/>
</clipPath>
</defs>
</svg>
