<svg width="30" height="27" viewBox="0 0 30 27" fill="none" xmlns="http://www.w3.org/2000/svg">
<path d="M21.429 22.5001C21.429 21.0048 21.429 20.2572 21.2444 19.6488C20.8289 18.2791 19.7571 17.2073 18.3874 16.7918C17.779 16.6072 17.0314 16.6072 15.5361 16.6072H10.179C8.68374 16.6072 7.93612 16.6072 7.32777 16.7918C5.95805 17.2073 4.88618 18.2791 4.47068 19.6488C4.28613 20.2572 4.28613 21.0048 4.28613 22.5001M17.679 8.03578C17.679 10.6986 15.5204 12.8572 12.8576 12.8572C10.1948 12.8572 8.03613 10.6986 8.03613 8.03578C8.03613 5.37298 10.1948 3.21436 12.8576 3.21436C15.5204 3.21436 17.679 5.37298 17.679 8.03578Z" stroke="#F291D0" stroke-width="2" stroke-linecap="round" stroke-linejoin="round"/>
<g clip-path="url(#clip0_12_5968)">
<path d="M18.9345 21.3961C19.0125 21.187 19.0515 21.0825 19.1024 20.9847C19.1476 20.8978 19.1999 20.815 19.2585 20.7371C19.3245 20.6494 19.4013 20.5702 19.555 20.4118L26.0006 13.7673C26.6318 13.1166 27.6551 13.1166 28.2863 13.7673C28.9175 14.418 28.9175 15.4729 28.2863 16.1235L21.8407 22.768C21.6871 22.9264 21.6102 23.0056 21.5252 23.0737C21.4496 23.1341 21.3692 23.1879 21.285 23.2346C21.1901 23.2871 21.0887 23.3273 20.8859 23.4077L17.7148 24.6649L18.9345 21.3961Z" fill="white"/>
<path d="M18.8909 21.5129C18.9751 21.2873 19.0171 21.1745 19.0893 21.1228C19.1524 21.0777 19.2304 21.0606 19.3059 21.0755C19.3922 21.0925 19.4751 21.1779 19.6408 21.3488L20.9317 22.6795C21.0975 22.8504 21.1804 22.9359 21.1969 23.0248C21.2113 23.1026 21.1947 23.183 21.1509 23.2481C21.1008 23.3225 20.9914 23.3658 20.7726 23.4526L17.7148 24.6649L18.8909 21.5129Z" fill="white"/>
<path d="M17.7148 24.6649L20.8859 23.4077C21.0887 23.3273 21.1901 23.2871 21.285 23.2346C21.3692 23.1879 21.4496 23.1341 21.5252 23.0737C21.6102 23.0056 21.6871 22.9264 21.8407 22.768L28.2863 16.1235C28.9175 15.4729 28.9175 14.418 28.2863 13.7673C27.6551 13.1166 26.6318 13.1166 26.0006 13.7673L19.555 20.4118C19.4013 20.5702 19.3245 20.6494 19.2585 20.7371C19.1999 20.815 19.1476 20.8978 19.1024 20.9847C19.0515 21.0825 19.0125 21.187 18.9345 21.3961L17.7148 24.6649ZM17.7148 24.6649L18.8909 21.5129C18.9751 21.2873 19.0171 21.1745 19.0893 21.1228C19.1524 21.0777 19.2304 21.0606 19.3059 21.0755C19.3922 21.0925 19.4751 21.1779 19.6408 21.3488L20.9317 22.6795C21.0975 22.8504 21.1804 22.9359 21.1969 23.0248C21.2113 23.1026 21.1947 23.183 21.1509 23.2481C21.1008 23.3225 20.9914 23.3658 20.7726 23.4526L17.7148 24.6649Z" stroke="#F291D0" stroke-width="2" stroke-linecap="round" stroke-linejoin="round"/>
</g>
<defs>
<clipPath id="clip0_12_5968">
<rect width="13.7143" height="14.1375" fill="white" transform="translate(16.2861 12)"/>
</clipPath>
</defs>
</svg>
