<svg width="76" height="63" viewBox="0 0 76 63" fill="none" xmlns="http://www.w3.org/2000/svg">
<path d="M23.1668 52.245H25.1618V54.36H23.1668V52.245ZM17.9018 51.045H30.4718V52.635H17.9018V51.045ZM19.2968 53.805H28.9568V58.335H26.9618V55.38H19.2968V53.805ZM19.5068 44.79H21.4718V46.005H26.9018V44.79H28.8818V50.145H19.5068V44.79ZM21.4718 47.505V48.585H26.9018V47.505H21.4718ZM32.1356 45.735H38.7806V54.945H32.1356V45.735ZM36.8156 47.31H34.1006V53.385H36.8156V47.31ZM40.5806 44.445H42.5906V58.335H40.5806V44.445ZM42.1556 49.68H44.6006V51.315H42.1556V49.68ZM46.9244 45.645H55.6844V47.25H46.9244V45.645ZM45.5144 55.065H58.0844V56.7H45.5144V55.065ZM54.8444 45.645H56.8094V47.265C56.8094 47.935 56.7994 48.615 56.7794 49.305C56.7594 49.985 56.7044 50.725 56.6144 51.525C56.5244 52.315 56.3744 53.215 56.1644 54.225L54.1844 54.045C54.4044 53.115 54.5594 52.26 54.6494 51.48C54.7394 50.7 54.7944 49.965 54.8144 49.275C54.8344 48.585 54.8444 47.915 54.8444 47.265V45.645ZM55.2494 49.455V50.925L46.7744 51.345L46.5194 49.74L55.2494 49.455Z" fill="#444444"/>
<path d="M26.333 13C26.333 10.1997 26.333 8.79961 26.878 7.73005C27.3573 6.78924 28.1222 6.02433 29.0631 5.54497C30.1326 5 31.5327 5 34.333 5H41.6663C44.4666 5 45.8667 5 46.9363 5.54497C47.8771 6.02433 48.642 6.78924 49.1214 7.73005C49.6663 8.79961 49.6663 10.1997 49.6663 13V35L37.9997 28.3333L26.333 35V13Z" stroke="#444444" stroke-width="2.5" stroke-linecap="round" stroke-linejoin="round"/>
</svg>
