<svg width="76" height="65" viewBox="0 0 76 65" fill="none" xmlns="http://www.w3.org/2000/svg">
<path d="M10.8229 48.44H14.3629V50.03H10.8229V48.44ZM10.8229 51.215H14.4229V52.805H10.8229V51.215ZM13.7329 46.445H15.7429V54.575H13.7329V46.445ZM4.67293 47.435H11.2429V53.825H4.67293V47.435ZM9.29293 49.01H6.63793V52.265H9.29293V49.01ZM11.0329 54.935C12.5029 54.935 13.6629 55.175 14.5129 55.655C15.3629 56.125 15.7879 56.78 15.7879 57.62C15.7879 58.48 15.3629 59.145 14.5129 59.615C13.6629 60.095 12.5029 60.335 11.0329 60.335C9.56293 60.335 8.40293 60.095 7.55293 59.615C6.70293 59.145 6.27793 58.48 6.27793 57.62C6.27793 56.78 6.70293 56.125 7.55293 55.655C8.40293 55.175 9.56293 54.935 11.0329 54.935ZM11.0329 56.465C10.4329 56.465 9.92793 56.505 9.51793 56.585C9.10793 56.665 8.79293 56.795 8.57293 56.975C8.36293 57.145 8.25793 57.365 8.25793 57.635C8.25793 57.895 8.36293 58.115 8.57293 58.295C8.79293 58.465 9.10793 58.595 9.51793 58.685C9.92793 58.765 10.4329 58.805 11.0329 58.805C11.6329 58.805 12.1379 58.765 12.5479 58.685C12.9579 58.595 13.2679 58.465 13.4779 58.295C13.6879 58.115 13.7929 57.895 13.7929 57.635C13.7929 57.365 13.6879 57.145 13.4779 56.975C13.2679 56.795 12.9579 56.665 12.5479 56.585C12.1379 56.505 11.6329 56.465 11.0329 56.465ZM23.4218 49.49H25.7468V51.11H23.4218V49.49ZM23.4218 53.795H25.7468V55.4H23.4218V53.795ZM27.9368 46.43H29.8418V60.32H27.9368V46.43ZM25.1768 46.655H27.0368V59.705H25.1768V46.655ZM21.0368 47.405C21.6468 47.405 22.1768 47.61 22.6268 48.02C23.0868 48.42 23.4368 49 23.6768 49.76C23.9268 50.51 24.0518 51.41 24.0518 52.46C24.0518 53.5 23.9268 54.4 23.6768 55.16C23.4368 55.92 23.0868 56.505 22.6268 56.915C22.1768 57.315 21.6418 57.515 21.0218 57.515C20.4218 57.515 19.8918 57.315 19.4318 56.915C18.9818 56.505 18.6318 55.92 18.3818 55.16C18.1418 54.4 18.0218 53.5 18.0218 52.46C18.0218 51.41 18.1418 50.51 18.3818 49.76C18.6318 49 18.9818 48.42 19.4318 48.02C19.8918 47.61 20.4268 47.405 21.0368 47.405ZM21.0368 49.295C20.7768 49.295 20.5568 49.41 20.3768 49.64C20.1968 49.87 20.0568 50.22 19.9568 50.69C19.8668 51.15 19.8218 51.74 19.8218 52.46C19.8218 53.16 19.8668 53.745 19.9568 54.215C20.0568 54.685 20.1968 55.04 20.3768 55.28C20.5568 55.51 20.7768 55.625 21.0368 55.625C21.2968 55.625 21.5168 55.51 21.6968 55.28C21.8768 55.04 22.0168 54.685 22.1168 54.215C22.2168 53.745 22.2668 53.16 22.2668 52.46C22.2668 51.74 22.2168 51.15 22.1168 50.69C22.0168 50.22 21.8768 49.87 21.6968 49.64C21.5168 49.41 21.2968 49.295 21.0368 49.295ZM36.1856 47.36C36.9056 47.36 37.5556 47.505 38.1356 47.795C38.7156 48.085 39.1706 48.49 39.5006 49.01C39.8306 49.52 39.9956 50.11 39.9956 50.78C39.9956 51.44 39.8306 52.03 39.5006 52.55C39.1706 53.07 38.7156 53.475 38.1356 53.765C37.5556 54.055 36.9056 54.2 36.1856 54.2C35.4556 54.2 34.8006 54.055 34.2206 53.765C33.6406 53.475 33.1806 53.07 32.8406 52.55C32.5106 52.03 32.3456 51.44 32.3456 50.78C32.3456 50.11 32.5106 49.52 32.8406 49.01C33.1806 48.49 33.6406 48.085 34.2206 47.795C34.8006 47.505 35.4556 47.36 36.1856 47.36ZM36.1856 49.07C35.8256 49.07 35.5006 49.14 35.2106 49.28C34.9306 49.41 34.7056 49.605 34.5356 49.865C34.3756 50.115 34.2956 50.42 34.2956 50.78C34.2956 51.14 34.3756 51.45 34.5356 51.71C34.7056 51.97 34.9306 52.17 35.2106 52.31C35.5006 52.44 35.8256 52.505 36.1856 52.505C36.5356 52.505 36.8506 52.44 37.1306 52.31C37.4106 52.17 37.6306 51.97 37.7906 51.71C37.9606 51.45 38.0456 51.14 38.0456 50.78C38.0456 50.42 37.9606 50.115 37.7906 49.865C37.6306 49.605 37.4106 49.41 37.1306 49.28C36.8506 49.14 36.5356 49.07 36.1856 49.07ZM41.3006 46.415H43.2956V60.35H41.3006V46.415ZM32.0006 57.545L31.7756 55.925C32.5856 55.925 33.4806 55.92 34.4606 55.91C35.4506 55.89 36.4656 55.85 37.5056 55.79C38.5556 55.72 39.5706 55.615 40.5506 55.475L40.6856 56.915C39.6856 57.115 38.6706 57.26 37.6406 57.35C36.6106 57.43 35.6156 57.485 34.6556 57.515C33.6956 57.535 32.8106 57.545 32.0006 57.545ZM52.9544 50.03H56.1794V51.635H52.9544V50.03ZM55.1294 46.445H57.1394V56.57H55.1294V46.445ZM47.9594 58.49H57.4544V60.095H47.9594V58.49ZM47.9594 55.715H49.9544V59.435H47.9594V55.715ZM48.7244 48.26H50.3444V49.13C50.3444 50.01 50.2044 50.845 49.9244 51.635C49.6444 52.425 49.2144 53.12 48.6344 53.72C48.0644 54.31 47.3294 54.755 46.4294 55.055L45.4394 53.465C46.0094 53.275 46.4994 53.03 46.9094 52.73C47.3294 52.42 47.6694 52.07 47.9294 51.68C48.1994 51.29 48.3994 50.88 48.5294 50.45C48.6594 50.02 48.7244 49.58 48.7244 49.13V48.26ZM49.1444 48.26H50.7344V49.13C50.7344 49.67 50.8444 50.21 51.0644 50.75C51.2844 51.28 51.6244 51.765 52.0844 52.205C52.5544 52.635 53.1544 52.975 53.8844 53.225L52.9094 54.77C52.0494 54.48 51.3394 54.055 50.7794 53.495C50.2294 52.925 49.8194 52.265 49.5494 51.515C49.2794 50.755 49.1444 49.96 49.1444 49.13V48.26ZM45.9794 47.375H53.4494V48.965H45.9794V47.375ZM68.2532 46.43H70.2632V54.455H68.2532V46.43ZM69.6932 49.715H72.0782V51.35H69.6932V49.715ZM65.7032 54.695C66.6632 54.695 67.4932 54.81 68.1932 55.04C68.8932 55.27 69.4332 55.595 69.8132 56.015C70.2032 56.425 70.3982 56.925 70.3982 57.515C70.3982 58.105 70.2032 58.61 69.8132 59.03C69.4332 59.46 68.8932 59.785 68.1932 60.005C67.4932 60.235 66.6632 60.35 65.7032 60.35C64.7532 60.35 63.9232 60.235 63.2132 60.005C62.5032 59.785 61.9532 59.46 61.5632 59.03C61.1832 58.61 60.9932 58.105 60.9932 57.515C60.9932 56.925 61.1832 56.425 61.5632 56.015C61.9532 55.595 62.5032 55.27 63.2132 55.04C63.9232 54.81 64.7532 54.695 65.7032 54.695ZM65.7032 56.285C65.1132 56.285 64.6182 56.33 64.2182 56.42C63.8182 56.51 63.5082 56.645 63.2882 56.825C63.0782 57.005 62.9732 57.235 62.9732 57.515C62.9732 57.785 63.0782 58.015 63.2882 58.205C63.5082 58.385 63.8182 58.52 64.2182 58.61C64.6182 58.7 65.1132 58.745 65.7032 58.745C66.2932 58.745 66.7882 58.7 67.1882 58.61C67.5982 58.52 67.9082 58.385 68.1182 58.205C68.3282 58.015 68.4332 57.785 68.4332 57.515C68.4332 57.235 68.3282 57.005 68.1182 56.825C67.9082 56.645 67.5982 56.51 67.1882 56.42C66.7882 56.33 66.2932 56.285 65.7032 56.285ZM59.7782 52.13H60.9482C61.9682 52.13 62.8382 52.12 63.5582 52.1C64.2782 52.08 64.9232 52.04 65.4932 51.98C66.0632 51.91 66.6282 51.815 67.1882 51.695L67.3832 53.285C66.8132 53.405 66.2332 53.5 65.6432 53.57C65.0532 53.63 64.3832 53.675 63.6332 53.705C62.8932 53.725 61.9982 53.735 60.9482 53.735H59.7782V52.13ZM59.7782 47.36H66.0032V48.965H61.7732V53.225H59.7782V47.36Z" fill="#444444"/>
<path d="M29.6667 25.1504V36.6666L37.5048 33.5313C37.6877 33.4582 37.7792 33.4216 37.8737 33.4071C37.9574 33.3942 38.0426 33.3942 38.1263 33.4071C38.2208 33.4216 38.3123 33.4582 38.4952 33.5313L46.3333 36.6666V25.1504M50.5 15.8333C50.5 22.7368 44.9036 28.3333 38 28.3333C31.0964 28.3333 25.5 22.7368 25.5 15.8333C25.5 8.92969 31.0964 3.33325 38 3.33325C44.9036 3.33325 50.5 8.92969 50.5 15.8333Z" stroke="#444444" stroke-width="2.5" stroke-linecap="round" stroke-linejoin="round"/>
</svg>
