<svg width="76" height="63" viewBox="0 0 76 63" fill="none" xmlns="http://www.w3.org/2000/svg">
<path d="M38 26.6666C40.7614 26.6666 43 24.4281 43 21.6666C43 18.9052 40.7614 16.6666 38 16.6666C35.2386 16.6666 33 18.9052 33 21.6666C33 24.4281 35.2386 26.6666 38 26.6666Z" stroke="#444444" stroke-width="2.5" stroke-linecap="round" stroke-linejoin="round"/>
<path d="M23 17.6084C23 16.6512 23 16.1725 23.1234 15.7318C23.2327 15.3413 23.4123 14.9741 23.6534 14.6481C23.9256 14.2801 24.3034 13.9862 25.059 13.3985L36.3628 4.60666C36.9484 4.15124 37.2411 3.92353 37.5644 3.836C37.8497 3.75877 38.1503 3.75877 38.4356 3.836C38.7589 3.92353 39.0516 4.15124 39.6372 4.60667L50.941 13.3985C51.6966 13.9862 52.0744 14.2801 52.3466 14.6481C52.5877 14.9741 52.7673 15.3413 52.8766 15.7318C53 16.1725 53 16.6512 53 17.6084V29.6666C53 31.5335 53 32.4669 52.6367 33.1799C52.3171 33.8071 51.8072 34.3171 51.18 34.6367C50.4669 35 49.5335 35 47.6667 35H28.3333C26.4665 35 25.5331 35 24.82 34.6367C24.1928 34.3171 23.6829 33.8071 23.3633 33.1799C23 32.4669 23 31.5335 23 29.6666V17.6084Z" stroke="#444444" stroke-width="2.5" stroke-linecap="round" stroke-linejoin="round"/>
<path d="M33.1706 54.12H42.7706V58.185H33.1706V54.12ZM40.8206 55.59H35.1206V56.7H40.8206V55.59ZM32.3006 45.405H43.6256V46.92H32.3006V45.405ZM37.9856 47.25C39.4856 47.25 40.6356 47.42 41.4356 47.76C42.2356 48.09 42.6356 48.58 42.6356 49.23C42.6356 49.89 42.2356 50.39 41.4356 50.73C40.6356 51.06 39.4856 51.225 37.9856 51.225C36.5056 51.225 35.3606 51.06 34.5506 50.73C33.7406 50.39 33.3356 49.89 33.3356 49.23C33.3356 48.58 33.7406 48.09 34.5506 47.76C35.3606 47.42 36.5056 47.25 37.9856 47.25ZM37.9856 48.6C37.1356 48.6 36.5056 48.65 36.0956 48.75C35.6856 48.85 35.4806 49.01 35.4806 49.23C35.4806 49.46 35.6856 49.625 36.0956 49.725C36.5056 49.825 37.1356 49.875 37.9856 49.875C38.8556 49.875 39.4906 49.825 39.8906 49.725C40.3006 49.625 40.5056 49.46 40.5056 49.23C40.5056 49.01 40.3006 48.85 39.8906 48.75C39.4906 48.65 38.8556 48.6 37.9856 48.6ZM36.9956 44.34H38.9756V46.485H36.9956V44.34ZM31.7006 51.87H44.2706V53.415H31.7006V51.87ZM36.9956 50.745H38.9756V52.68H36.9956V50.745Z" fill="#444444"/>
</svg>
