<svg width="76" height="63" viewBox="0 0 76 63" fill="none" xmlns="http://www.w3.org/2000/svg">
<path d="M23.1668 48.585H25.1618V50.505H23.1668V48.585ZM22.8218 45.42H24.5468V45.78C24.5468 46.15 24.4718 46.505 24.3218 46.845C24.1718 47.185 23.9468 47.5 23.6468 47.79C23.3568 48.07 22.9868 48.32 22.5368 48.54C22.0968 48.76 21.5818 48.94 20.9918 49.08C20.4118 49.22 19.7668 49.315 19.0568 49.365L18.4418 47.865C19.0518 47.835 19.5918 47.775 20.0618 47.685C20.5418 47.585 20.9518 47.465 21.2918 47.325C21.6418 47.185 21.9268 47.035 22.1468 46.875C22.3768 46.705 22.5468 46.525 22.6568 46.335C22.7668 46.145 22.8218 45.96 22.8218 45.78V45.42ZM23.8268 45.42H25.5518V45.78C25.5518 45.96 25.6068 46.145 25.7168 46.335C25.8268 46.525 25.9918 46.705 26.2118 46.875C26.4418 47.035 26.7268 47.185 27.0668 47.325C27.4168 47.465 27.8268 47.585 28.2968 47.685C28.7768 47.775 29.3268 47.835 29.9468 47.865L29.3318 49.365C28.6118 49.315 27.9568 49.22 27.3668 49.08C26.7868 48.94 26.2768 48.765 25.8368 48.555C25.3968 48.335 25.0268 48.085 24.7268 47.805C24.4268 47.515 24.2018 47.2 24.0518 46.86C23.9018 46.52 23.8268 46.16 23.8268 45.78V45.42ZM19.0568 44.775H29.3468V46.29H19.0568V44.775ZM19.0418 52.815H29.3168V54.315H19.0418V52.815ZM17.9168 49.845H30.4868V51.405H17.9168V49.845ZM24.1568 54.705C25.5068 54.705 26.5518 54.865 27.2918 55.185C28.0318 55.495 28.4018 55.945 28.4018 56.535C28.4018 57.135 28.0318 57.59 27.2918 57.9C26.5518 58.21 25.5068 58.365 24.1568 58.365C22.8168 58.365 21.7768 58.21 21.0368 57.9C20.2968 57.59 19.9268 57.135 19.9268 56.535C19.9268 55.945 20.2968 55.495 21.0368 55.185C21.7768 54.865 22.8168 54.705 24.1568 54.705ZM24.1568 56.025C23.4368 56.025 22.8968 56.065 22.5368 56.145C22.1768 56.215 21.9968 56.345 21.9968 56.535C21.9968 56.725 22.1768 56.86 22.5368 56.94C22.8968 57.02 23.4368 57.06 24.1568 57.06C24.8868 57.06 25.4318 57.02 25.7918 56.94C26.1618 56.86 26.3468 56.725 26.3468 56.535C26.3468 56.345 26.1618 56.215 25.7918 56.145C25.4318 56.065 24.8868 56.025 24.1568 56.025ZM23.1818 51.84H25.1618V53.7H23.1818V51.84ZM35.4356 45.39C36.1456 45.39 36.7706 45.595 37.3106 46.005C37.8606 46.405 38.2906 46.98 38.6006 47.73C38.9206 48.47 39.0806 49.345 39.0806 50.355C39.0806 51.375 38.9206 52.26 38.6006 53.01C38.2906 53.75 37.8606 54.325 37.3106 54.735C36.7706 55.135 36.1456 55.335 35.4356 55.335C34.7256 55.335 34.0956 55.135 33.5456 54.735C32.9956 54.325 32.5606 53.75 32.2406 53.01C31.9306 52.26 31.7756 51.375 31.7756 50.355C31.7756 49.345 31.9306 48.47 32.2406 47.73C32.5606 46.98 32.9956 46.405 33.5456 46.005C34.0956 45.595 34.7256 45.39 35.4356 45.39ZM35.4356 47.205C35.0956 47.205 34.7906 47.325 34.5206 47.565C34.2606 47.805 34.0556 48.16 33.9056 48.63C33.7656 49.09 33.6956 49.665 33.6956 50.355C33.6956 51.035 33.7656 51.615 33.9056 52.095C34.0556 52.565 34.2606 52.92 34.5206 53.16C34.7906 53.4 35.0956 53.52 35.4356 53.52C35.7756 53.52 36.0756 53.4 36.3356 53.16C36.5956 52.92 36.7956 52.565 36.9356 52.095C37.0856 51.615 37.1606 51.035 37.1606 50.355C37.1606 49.665 37.0856 49.09 36.9356 48.63C36.7956 48.16 36.5956 47.805 36.3356 47.565C36.0756 47.325 35.7756 47.205 35.4356 47.205ZM40.5806 44.445H42.5906V58.335H40.5806V44.445ZM42.1556 49.68H44.6006V51.315H42.1556V49.68ZM48.2744 51.495H50.2694V55.38H48.2744V51.495ZM53.3144 51.495H55.3094V55.38H53.3144V51.495ZM45.5144 55.095H58.0994V56.715H45.5144V55.095ZM51.7844 45.12C52.7844 45.12 53.6744 45.275 54.4544 45.585C55.2444 45.895 55.8594 46.33 56.2994 46.89C56.7494 47.44 56.9744 48.095 56.9744 48.855C56.9744 49.605 56.7494 50.26 56.2994 50.82C55.8594 51.37 55.2444 51.8 54.4544 52.11C53.6744 52.42 52.7844 52.575 51.7844 52.575C50.7944 52.575 49.9044 52.42 49.1144 52.11C48.3344 51.8 47.7194 51.37 47.2694 50.82C46.8194 50.26 46.5944 49.605 46.5944 48.855C46.5944 48.095 46.8194 47.44 47.2694 46.89C47.7194 46.33 48.3344 45.895 49.1144 45.585C49.9044 45.275 50.7944 45.12 51.7844 45.12ZM51.7844 46.665C51.1444 46.665 50.5794 46.755 50.0894 46.935C49.6094 47.105 49.2344 47.35 48.9644 47.67C48.6944 47.99 48.5594 48.385 48.5594 48.855C48.5594 49.305 48.6944 49.695 48.9644 50.025C49.2344 50.345 49.6094 50.595 50.0894 50.775C50.5794 50.945 51.1444 51.03 51.7844 51.03C52.4344 51.03 52.9994 50.945 53.4794 50.775C53.9694 50.595 54.3444 50.345 54.6044 50.025C54.8744 49.695 55.0094 49.305 55.0094 48.855C55.0094 48.385 54.8744 47.99 54.6044 47.67C54.3444 47.35 53.9694 47.105 53.4794 46.935C52.9994 46.755 52.4344 46.665 51.7844 46.665Z" fill="#444444"/>
<path fill-rule="evenodd" clip-rule="evenodd" d="M37.9883 8.55969C34.656 4.664 29.0993 3.61607 24.9242 7.18336C20.7491 10.7506 20.1613 16.715 23.44 20.934C26.166 24.4418 34.416 31.8402 37.1198 34.2347C37.4223 34.5026 37.5736 34.6366 37.75 34.6892C37.904 34.7351 38.0725 34.7351 38.2265 34.6892C38.4029 34.6366 38.5542 34.5026 38.8567 34.2347C41.5606 31.8402 49.8105 24.4418 52.5365 20.934C55.8152 16.715 55.2992 10.7131 51.0524 7.18336C46.8055 3.6536 41.3205 4.664 37.9883 8.55969Z" stroke="#444444" stroke-width="2.5" stroke-linecap="round" stroke-linejoin="round"/>
</svg>
