<svg width="30" height="33" viewBox="0 0 30 33" fill="none" xmlns="http://www.w3.org/2000/svg">
<path d="M8.75 13.426V10.7408C8.75 7.03333 11.5482 4.02783 15 4.02783C17.5629 4.02783 19.7655 5.68472 20.7299 8.05561M15 19.4676V22.1528M11 28.1945H19C21.1002 28.1945 22.1503 28.1945 22.9525 27.7555C23.6581 27.3693 24.2317 26.7532 24.5913 25.9953C25 25.1337 25 24.0058 25 21.7501V19.8704C25 17.6147 25 16.4868 24.5913 15.6252C24.2317 14.8673 23.6581 14.2511 22.9525 13.865C22.1503 13.426 21.1002 13.426 19 13.426H11C8.8998 13.426 7.8497 13.426 7.04754 13.865C6.34193 14.2511 5.76825 14.8673 5.40873 15.6252C5 16.4868 5 17.6147 5 19.8704V21.7501C5 24.0058 5 25.1337 5.40873 25.9953C5.76825 26.7532 6.34193 27.3693 7.04754 27.7555C7.8497 28.1945 8.8998 28.1945 11 28.1945Z" stroke="#F291D0" stroke-width="2.5" stroke-linecap="round" stroke-linejoin="round"/>
</svg>
