<svg width="30" height="30" viewBox="0 0 30 30" fill="none" xmlns="http://www.w3.org/2000/svg">
<path d="M4.83887 8.22589C4.83887 6.19344 4.83887 5.17721 5.23441 4.40092C5.58234 3.71807 6.13751 3.1629 6.82035 2.81497C7.59665 2.41943 8.61287 2.41943 10.6453 2.41943H18.3873C20.4197 2.41943 21.4359 2.41943 22.2122 2.81497C22.8951 3.1629 23.4502 3.71807 23.7982 4.40092C24.1937 5.17721 24.1937 6.19344 24.1937 8.22589V20.8065C24.1937 22.839 24.1937 23.8552 23.7982 24.6315C23.4502 25.3143 22.8951 25.8695 22.2122 26.2174C21.4359 26.613 20.4197 26.613 18.3873 26.613H10.6453C8.61287 26.613 7.59665 26.613 6.82035 26.2174C6.13751 25.8695 5.58234 25.3143 5.23441 24.6315C4.83887 23.8552 4.83887 22.839 4.83887 20.8065V8.22589Z" fill="white"/>
<path d="M16.9356 13.3065H9.67758M12.0969 18.1452H9.67758M19.355 8.46782H9.67758M24.1937 8.22589V20.8065C24.1937 22.839 24.1937 23.8552 23.7982 24.6315C23.4502 25.3143 22.8951 25.8695 22.2122 26.2174C21.4359 26.613 20.4197 26.613 18.3873 26.613H10.6453C8.61287 26.613 7.59665 26.613 6.82035 26.2174C6.13751 25.8695 5.58234 25.3143 5.23441 24.6315C4.83887 23.8552 4.83887 22.839 4.83887 20.8065V8.22589C4.83887 6.19344 4.83887 5.17721 5.23441 4.40092C5.58234 3.71807 6.13751 3.1629 6.82035 2.81497C7.59665 2.41943 8.61287 2.41943 10.6453 2.41943H18.3873C20.4197 2.41943 21.4359 2.41943 22.2122 2.81497C22.8951 3.1629 23.4502 3.71807 23.7982 4.40092C24.1937 5.17721 24.1937 6.19344 24.1937 8.22589Z" stroke="#F291D0" stroke-width="2" stroke-linecap="round" stroke-linejoin="round"/>
<g clip-path="url(#clip0_12_5991)">
<path d="M17.5069 17.7021C17.5949 17.4158 17.639 17.2727 17.6965 17.1388C17.7476 17.0199 17.8065 16.9065 17.8727 16.7998C17.9473 16.6798 18.034 16.5713 18.2075 16.3545L25.4847 7.25793C26.1974 6.36715 27.3528 6.36715 28.0654 7.25793C28.778 8.14871 28.778 9.59296 28.0654 10.4837L20.7881 19.5803C20.6146 19.7971 20.5279 19.9056 20.4318 19.9987C20.3465 20.0815 20.2558 20.1552 20.1607 20.219C20.0535 20.2909 19.9391 20.346 19.7101 20.456L16.1299 22.1773L17.5069 17.7021Z" fill="white"/>
<path d="M17.4577 17.8619C17.5527 17.5531 17.6002 17.3987 17.6817 17.328C17.7529 17.2662 17.841 17.2428 17.9262 17.2631C18.0236 17.2864 18.1172 17.4034 18.3044 17.6373L19.7619 19.4592C19.949 19.6931 20.0426 19.8101 20.0612 19.9319C20.0775 20.0384 20.0588 20.1485 20.0093 20.2375C19.9528 20.3394 19.8292 20.3988 19.5822 20.5175L16.1299 22.1773L17.4577 17.8619Z" fill="white"/>
<path d="M16.1299 22.1773L19.7101 20.456C19.9391 20.346 20.0535 20.2909 20.1607 20.219C20.2558 20.1552 20.3465 20.0815 20.4318 19.9987C20.5279 19.9056 20.6146 19.7971 20.7881 19.5803L28.0654 10.4837C28.778 9.59296 28.778 8.14871 28.0654 7.25793C27.3528 6.36715 26.1974 6.36715 25.4847 7.25793L18.2075 16.3545C18.034 16.5713 17.9473 16.6798 17.8727 16.7998C17.8065 16.9065 17.7476 17.0199 17.6965 17.1388C17.639 17.2727 17.5949 17.4158 17.5069 17.7021L16.1299 22.1773ZM16.1299 22.1773L17.4577 17.8619C17.5527 17.5531 17.6002 17.3987 17.6817 17.328C17.7529 17.2662 17.841 17.2428 17.9262 17.2631C18.0236 17.2864 18.1172 17.4034 18.3044 17.6373L19.7619 19.4592C19.949 19.6931 20.0426 19.8101 20.0612 19.9319C20.0775 20.0384 20.0588 20.1485 20.0093 20.2375C19.9528 20.3394 19.8292 20.3988 19.5822 20.5175L16.1299 22.1773Z" stroke="#F291D0" stroke-width="2.5" stroke-linecap="round" stroke-linejoin="round"/>
</g>
<defs>
<clipPath id="clip0_12_5991">
<rect width="15.4839" height="19.3548" fill="white" transform="translate(14.5166 4.83862)"/>
</clipPath>
</defs>
</svg>
