<svg width="77" height="82" viewBox="0 0 77 82" fill="none" xmlns="http://www.w3.org/2000/svg">
<rect x="1" y="1" width="75" height="80" rx="10" fill="white"/>
<rect x="1" y="1" width="75" height="80" rx="10" stroke="#D9D9D9"/>
<path d="M20.3986 61.1458C22.0462 57.2642 25.8928 54.5417 30.3753 54.5417H46.6253C51.1078 54.5417 54.9545 57.2642 56.602 61.1458M49.3337 34.2292C49.3337 40.2123 44.4834 45.0626 38.5003 45.0626C32.5172 45.0626 27.667 40.2123 27.667 34.2292C27.667 28.2462 32.5172 23.3959 38.5003 23.3959C44.4834 23.3959 49.3337 28.2462 49.3337 34.2292ZM65.5837 41.0001C65.5837 55.9578 53.458 68.0834 38.5003 68.0834C23.5426 68.0834 11.417 55.9578 11.417 41.0001C11.417 26.0424 23.5426 13.9167 38.5003 13.9167C53.458 13.9167 65.5837 26.0424 65.5837 41.0001Z" stroke="#F291D0" stroke-width="4" stroke-linecap="round" stroke-linejoin="round"/>
</svg>
