<svg width="58" height="58" viewBox="0 0 58 58" fill="none" xmlns="http://www.w3.org/2000/svg">
<g filter="url(#filter0_d_12_5806)">
<circle cx="29" cy="25" r="25" fill="white"/>
</g>
<path d="M38.1268 25.3967C38.1268 30.6566 33.8629 34.9205 28.603 34.9205M38.1268 25.3967C38.1268 20.1369 33.8629 15.8729 28.603 15.8729M38.1268 25.3967H40.5078M28.603 34.9205C23.3431 34.9205 19.0792 30.6566 19.0792 25.3967M28.603 34.9205V37.3015M19.0792 25.3967C19.0792 20.1369 23.3431 15.8729 28.603 15.8729M19.0792 25.3967H16.6982M28.603 15.8729V13.4919M32.1744 25.3967C32.1744 27.3692 30.5754 28.9681 28.603 28.9681C26.6306 28.9681 25.0316 27.3692 25.0316 25.3967C25.0316 23.4243 26.6306 21.8253 28.603 21.8253C30.5754 21.8253 32.1744 23.4243 32.1744 25.3967Z" stroke="#F291D0" stroke-width="2.5" stroke-linecap="round" stroke-linejoin="round"/>
<defs>
<filter id="filter0_d_12_5806" x="0" y="0" width="58" height="58" filterUnits="userSpaceOnUse" color-interpolation-filters="sRGB">
<feFlood flood-opacity="0" result="BackgroundImageFix"/>
<feColorMatrix in="SourceAlpha" type="matrix" values="0 0 0 0 0 0 0 0 0 0 0 0 0 0 0 0 0 0 127 0" result="hardAlpha"/>
<feOffset dy="4"/>
<feGaussianBlur stdDeviation="2"/>
<feComposite in2="hardAlpha" operator="out"/>
<feColorMatrix type="matrix" values="0 0 0 0 0 0 0 0 0 0 0 0 0 0 0 0 0 0 0.25 0"/>
<feBlend mode="normal" in2="BackgroundImageFix" result="effect1_dropShadow_12_5806"/>
<feBlend mode="normal" in="SourceGraphic" in2="effect1_dropShadow_12_5806" result="shape"/>
</filter>
</defs>
</svg>
