<svg width="30" height="30" viewBox="0 0 30 30" fill="none" xmlns="http://www.w3.org/2000/svg">
<path d="M20.25 26.25H8.66421C7.90694 26.25 7.52831 26.25 7.35298 26.1003C7.20085 25.9703 7.12011 25.7754 7.13581 25.576C7.1539 25.3461 7.42164 25.0784 7.95711 24.5429L18.5858 13.9142C19.0808 13.4192 19.3283 13.1717 19.6137 13.0789C19.8648 12.9974 20.1352 12.9974 20.3863 13.0789C20.6717 13.1717 20.9192 13.4192 21.4142 13.9142L26.25 18.75V20.25M20.25 26.25C22.3502 26.25 23.4003 26.25 24.2025 25.8413C24.9081 25.4817 25.4817 24.9081 25.8413 24.2025C26.25 23.4003 26.25 22.3502 26.25 20.25M20.25 26.25H9.75C7.6498 26.25 6.5997 26.25 5.79754 25.8413C5.09193 25.4817 4.51825 24.9081 4.15873 24.2025C3.75 23.4003 3.75 22.3502 3.75 20.25V9.75C3.75 7.6498 3.75 6.5997 4.15873 5.79754C4.51825 5.09193 5.09193 4.51825 5.79754 4.15873C6.5997 3.75 7.6498 3.75 9.75 3.75H20.25C22.3502 3.75 23.4003 3.75 24.2025 4.15873C24.9081 4.51825 25.4817 5.09193 25.8413 5.79754C26.25 6.5997 26.25 7.6498 26.25 9.75V20.25M13.125 10.625C13.125 12.0057 12.0057 13.125 10.625 13.125C9.24429 13.125 8.125 12.0057 8.125 10.625C8.125 9.24429 9.24429 8.125 10.625 8.125C12.0057 8.125 13.125 9.24429 13.125 10.625Z" stroke="#444444" stroke-width="2.5" stroke-linecap="round" stroke-linejoin="round"/>
</svg>
