<svg width="76" height="65" viewBox="0 0 76 65" fill="none" xmlns="http://www.w3.org/2000/svg">
<path d="M26.8607 32.3974C27.8745 30.0087 30.2417 28.3334 33.0002 28.3334H43.0002C45.7586 28.3334 48.1258 30.0087 49.1397 32.3974M44.6668 15.8334C44.6668 19.5153 41.6821 22.5 38.0002 22.5C34.3183 22.5 31.3335 19.5153 31.3335 15.8334C31.3335 12.1515 34.3183 9.16671 38.0002 9.16671C41.6821 9.16671 44.6668 12.1515 44.6668 15.8334ZM54.6668 20C54.6668 29.2048 47.2049 36.6667 38.0002 36.6667C28.7954 36.6667 21.3335 29.2048 21.3335 20C21.3335 10.7953 28.7954 3.33337 38.0002 3.33337C47.2049 3.33337 54.6668 10.7953 54.6668 20Z" stroke="#F291D0" stroke-width="2.5" stroke-linecap="round" stroke-linejoin="round"/>
<path d="M4.53793 47.735H11.1829V56.945H4.53793V47.735ZM9.21793 49.31H6.50293V55.385H9.21793V49.31ZM12.9829 46.445H14.9929V60.335H12.9829V46.445ZM14.5579 51.68H17.0029V53.315H14.5579V51.68ZM27.4418 46.415H29.4368V60.35H27.4418V46.415ZM21.9518 47.39C22.6618 47.39 23.2918 47.595 23.8418 48.005C24.3918 48.405 24.8218 48.98 25.1318 49.73C25.4518 50.47 25.6118 51.345 25.6118 52.355C25.6118 53.375 25.4518 54.26 25.1318 55.01C24.8218 55.75 24.3918 56.325 23.8418 56.735C23.2918 57.135 22.6618 57.335 21.9518 57.335C21.2518 57.335 20.6268 57.135 20.0768 56.735C19.5268 56.325 19.0918 55.75 18.7718 55.01C18.4618 54.26 18.3068 53.375 18.3068 52.355C18.3068 51.345 18.4618 50.47 18.7718 49.73C19.0918 48.98 19.5268 48.405 20.0768 48.005C20.6268 47.595 21.2518 47.39 21.9518 47.39ZM21.9518 49.205C21.6118 49.205 21.3118 49.325 21.0518 49.565C20.7918 49.805 20.5868 50.16 20.4368 50.63C20.2968 51.09 20.2268 51.665 20.2268 52.355C20.2268 53.035 20.2968 53.615 20.4368 54.095C20.5868 54.565 20.7918 54.92 21.0518 55.16C21.3118 55.4 21.6118 55.52 21.9518 55.52C22.3018 55.52 22.6068 55.4 22.8668 55.16C23.1268 54.92 23.3268 54.565 23.4668 54.095C23.6168 53.615 23.6918 53.035 23.6918 52.355C23.6918 51.665 23.6168 51.09 23.4668 50.63C23.3268 50.16 23.1268 49.805 22.8668 49.565C22.6068 49.325 22.3018 49.205 21.9518 49.205ZM41.8706 46.445H43.7606V60.335H41.8706V46.445ZM37.7906 51.5H39.6506V53.24H37.7906V51.5ZM39.1106 46.7H40.9706V59.675H39.1106V46.7ZM31.8056 48.005H38.1356V49.595H31.8056V48.005ZM31.7906 57.185L31.5806 55.55C32.0106 55.55 32.5056 55.55 33.0656 55.55C33.6256 55.54 34.2106 55.525 34.8206 55.505C35.4306 55.475 36.0356 55.44 36.6356 55.4C37.2456 55.35 37.8156 55.29 38.3456 55.22L38.4656 56.66C37.7556 56.82 36.9906 56.94 36.1706 57.02C35.3506 57.09 34.5556 57.135 33.7856 57.155C33.0256 57.175 32.3606 57.185 31.7906 57.185ZM32.6606 49.01H34.4606V55.985H32.6606V49.01ZM35.4656 49.01H37.2506V55.985H35.4656V49.01ZM55.0394 46.415H57.0344V60.35H55.0394V46.415ZM49.5494 47.39C50.2594 47.39 50.8894 47.595 51.4394 48.005C51.9894 48.405 52.4194 48.98 52.7294 49.73C53.0494 50.47 53.2094 51.345 53.2094 52.355C53.2094 53.375 53.0494 54.26 52.7294 55.01C52.4194 55.75 51.9894 56.325 51.4394 56.735C50.8894 57.135 50.2594 57.335 49.5494 57.335C48.8494 57.335 48.2244 57.135 47.6744 56.735C47.1244 56.325 46.6894 55.75 46.3694 55.01C46.0594 54.26 45.9044 53.375 45.9044 52.355C45.9044 51.345 46.0594 50.47 46.3694 49.73C46.6894 48.98 47.1244 48.405 47.6744 48.005C48.2244 47.595 48.8494 47.39 49.5494 47.39ZM49.5494 49.205C49.2094 49.205 48.9094 49.325 48.6494 49.565C48.3894 49.805 48.1844 50.16 48.0344 50.63C47.8944 51.09 47.8244 51.665 47.8244 52.355C47.8244 53.035 47.8944 53.615 48.0344 54.095C48.1844 54.565 48.3894 54.92 48.6494 55.16C48.9094 55.4 49.2094 55.52 49.5494 55.52C49.8994 55.52 50.2044 55.4 50.4644 55.16C50.7244 54.92 50.9244 54.565 51.0644 54.095C51.2144 53.615 51.2894 53.035 51.2894 52.355C51.2894 51.665 51.2144 51.09 51.0644 50.63C50.9244 50.16 50.7244 49.805 50.4644 49.565C50.2044 49.325 49.8994 49.205 49.5494 49.205ZM62.6582 48.635H64.2482V50.195C64.2482 50.995 64.1632 51.78 63.9932 52.55C63.8332 53.32 63.5882 54.045 63.2582 54.725C62.9382 55.395 62.5332 55.99 62.0432 56.51C61.5532 57.02 60.9832 57.425 60.3332 57.725L59.1932 56.15C59.7732 55.88 60.2782 55.53 60.7082 55.1C61.1482 54.67 61.5082 54.19 61.7882 53.66C62.0782 53.12 62.2932 52.555 62.4332 51.965C62.5832 51.365 62.6582 50.775 62.6582 50.195V48.635ZM63.0932 48.635H64.6682V50.195C64.6682 50.745 64.7382 51.305 64.8782 51.875C65.0282 52.435 65.2432 52.97 65.5232 53.48C65.8032 53.98 66.1582 54.43 66.5882 54.83C67.0182 55.23 67.5282 55.55 68.1182 55.79L67.0232 57.38C66.3632 57.09 65.7882 56.7 65.2982 56.21C64.8082 55.72 64.3982 55.155 64.0682 54.515C63.7382 53.875 63.4932 53.19 63.3332 52.46C63.1732 51.72 63.0932 50.965 63.0932 50.195V48.635ZM59.7482 47.765H67.5482V49.415H59.7482V47.765ZM68.8382 46.445H70.8332V60.335H68.8382V46.445Z" fill="#F291D0"/>
</svg>
