<svg width="30" height="30" viewBox="0 0 30 30" fill="none" xmlns="http://www.w3.org/2000/svg">
<path d="M10.7375 16.8875L19.275 21.8625M19.2625 8.1375L10.7375 13.1125M26.25 6.25C26.25 8.32107 24.5711 10 22.5 10C20.4289 10 18.75 8.32107 18.75 6.25C18.75 4.17893 20.4289 2.5 22.5 2.5C24.5711 2.5 26.25 4.17893 26.25 6.25ZM11.25 15C11.25 17.0711 9.57107 18.75 7.5 18.75C5.42893 18.75 3.75 17.0711 3.75 15C3.75 12.9289 5.42893 11.25 7.5 11.25C9.57107 11.25 11.25 12.9289 11.25 15ZM26.25 23.75C26.25 25.8211 24.5711 27.5 22.5 27.5C20.4289 27.5 18.75 25.8211 18.75 23.75C18.75 21.6789 20.4289 20 22.5 20C24.5711 20 26.25 21.6789 26.25 23.75Z" stroke="#444444" stroke-width="2.5" stroke-linecap="round" stroke-linejoin="round"/>
</svg>
