<svg width="58" height="58" viewBox="0 0 58 58" fill="none" xmlns="http://www.w3.org/2000/svg">
<g filter="url(#filter0_d_12_6140)">
<circle cx="29" cy="25" r="25" fill="white"/>
</g>
<path d="M18.8389 18.2259C18.8389 16.1934 18.8389 15.1772 19.2344 14.4009C19.5823 13.7181 20.1375 13.1629 20.8204 12.815C21.5966 12.4194 22.6129 12.4194 24.6453 12.4194H32.3873C34.4197 12.4194 35.4359 12.4194 36.2122 12.815C36.8951 13.1629 37.4502 13.7181 37.7982 14.4009C38.1937 15.1772 38.1937 16.1934 38.1937 18.2259V30.8065C38.1937 32.839 38.1937 33.8552 37.7982 34.6315C37.4502 35.3143 36.8951 35.8695 36.2122 36.2174C35.4359 36.613 34.4197 36.613 32.3873 36.613H24.6453C22.6129 36.613 21.5966 36.613 20.8204 36.2174C20.1375 35.8695 19.5823 35.3143 19.2344 34.6315C18.8389 33.8552 18.8389 32.839 18.8389 30.8065V18.2259Z" fill="white"/>
<path d="M30.9356 23.3065H23.6776M26.0969 28.1452H23.6776M33.355 18.4678H23.6776M38.1937 18.2259V30.8065C38.1937 32.839 38.1937 33.8552 37.7982 34.6315C37.4502 35.3143 36.8951 35.8695 36.2122 36.2174C35.4359 36.613 34.4197 36.613 32.3873 36.613H24.6453C22.6129 36.613 21.5966 36.613 20.8204 36.2174C20.1375 35.8695 19.5823 35.3143 19.2344 34.6315C18.8389 33.8552 18.8389 32.839 18.8389 30.8065V18.2259C18.8389 16.1934 18.8389 15.1772 19.2344 14.4009C19.5823 13.7181 20.1375 13.1629 20.8204 12.815C21.5966 12.4194 22.6129 12.4194 24.6453 12.4194H32.3873C34.4197 12.4194 35.4359 12.4194 36.2122 12.815C36.8951 13.1629 37.4502 13.7181 37.7982 14.4009C38.1937 15.1772 38.1937 16.1934 38.1937 18.2259Z" stroke="#F291D0" stroke-width="2" stroke-linecap="round" stroke-linejoin="round"/>
<g clip-path="url(#clip0_12_6140)">
<path d="M31.5069 27.7021C31.5949 27.4158 31.639 27.2727 31.6965 27.1388C31.7476 27.0199 31.8065 26.9065 31.8727 26.7998C31.9473 26.6798 32.034 26.5713 32.2075 26.3545L39.4847 17.2579C40.1974 16.3671 41.3528 16.3671 42.0654 17.2579C42.778 18.1487 42.778 19.593 42.0654 20.4837L34.7881 29.5803C34.6146 29.7971 34.5279 29.9056 34.4318 29.9987C34.3465 30.0815 34.2558 30.1552 34.1607 30.219C34.0535 30.2909 33.9391 30.346 33.7101 30.456L30.1299 32.1773L31.5069 27.7021Z" fill="white"/>
<path d="M31.4577 27.8619C31.5527 27.5531 31.6002 27.3987 31.6817 27.328C31.7529 27.2662 31.841 27.2428 31.9262 27.2631C32.0236 27.2864 32.1172 27.4034 32.3044 27.6373L33.7619 29.4592C33.949 29.6931 34.0426 29.8101 34.0612 29.9319C34.0775 30.0384 34.0588 30.1485 34.0093 30.2375C33.9528 30.3394 33.8292 30.3988 33.5822 30.5175L30.1299 32.1773L31.4577 27.8619Z" fill="white"/>
<path d="M30.1299 32.1773L33.7101 30.456C33.9391 30.346 34.0535 30.2909 34.1607 30.219C34.2558 30.1552 34.3465 30.0815 34.4318 29.9987C34.5279 29.9056 34.6146 29.7971 34.7881 29.5803L42.0654 20.4837C42.778 19.593 42.778 18.1487 42.0654 17.2579C41.3528 16.3671 40.1974 16.3671 39.4847 17.2579L32.2075 26.3545C32.034 26.5713 31.9473 26.6798 31.8727 26.7998C31.8065 26.9065 31.7476 27.0199 31.6965 27.1388C31.639 27.2727 31.5949 27.4158 31.5069 27.7021L30.1299 32.1773ZM30.1299 32.1773L31.4577 27.8619C31.5527 27.5531 31.6002 27.3987 31.6817 27.328C31.7529 27.2662 31.841 27.2428 31.9262 27.2631C32.0236 27.2864 32.1172 27.4034 32.3044 27.6373L33.7619 29.4592C33.949 29.6931 34.0426 29.8101 34.0612 29.9319C34.0775 30.0384 34.0588 30.1485 34.0093 30.2375C33.9528 30.3394 33.8292 30.3988 33.5822 30.5175L30.1299 32.1773Z" stroke="#F291D0" stroke-width="2.5" stroke-linecap="round" stroke-linejoin="round"/>
</g>
<defs>
<filter id="filter0_d_12_6140" x="0" y="0" width="58" height="58" filterUnits="userSpaceOnUse" color-interpolation-filters="sRGB">
<feFlood flood-opacity="0" result="BackgroundImageFix"/>
<feColorMatrix in="SourceAlpha" type="matrix" values="0 0 0 0 0 0 0 0 0 0 0 0 0 0 0 0 0 0 127 0" result="hardAlpha"/>
<feOffset dy="4"/>
<feGaussianBlur stdDeviation="2"/>
<feComposite in2="hardAlpha" operator="out"/>
<feColorMatrix type="matrix" values="0 0 0 0 0 0 0 0 0 0 0 0 0 0 0 0 0 0 0.25 0"/>
<feBlend mode="normal" in2="BackgroundImageFix" result="effect1_dropShadow_12_6140"/>
<feBlend mode="normal" in="SourceGraphic" in2="effect1_dropShadow_12_6140" result="shape"/>
</filter>
<clipPath id="clip0_12_6140">
<rect width="15.4839" height="19.3548" fill="white" transform="translate(28.5166 14.8386)"/>
</clipPath>
</defs>
</svg>
