<svg width="122" height="122" viewBox="0 0 122 122" fill="none" xmlns="http://www.w3.org/2000/svg">
<rect x="1" y="1" width="120" height="120" rx="10" fill="white"/>
<rect x="1" y="1" width="120" height="120" rx="10" stroke="#D9D9D9"/>
<path d="M30.3667 95.0928C33.1548 88.5239 39.6646 83.9168 47.2503 83.9168H74.7503C82.3361 83.9168 88.8458 88.5239 91.634 95.0928M79.3337 49.5417C79.3337 59.667 71.1255 67.8751 61.0003 67.8751C50.8751 67.8751 42.667 59.667 42.667 49.5417C42.667 39.4165 50.8751 31.2084 61.0003 31.2084C71.1255 31.2084 79.3337 39.4165 79.3337 49.5417ZM106.834 61.0001C106.834 86.3131 86.3134 106.833 61.0003 106.833C35.6873 106.833 15.167 86.3131 15.167 61.0001C15.167 35.687 35.6873 15.1667 61.0003 15.1667C86.3134 15.1667 106.834 35.687 106.834 61.0001Z" stroke="#F291D0" stroke-width="6" stroke-linecap="round" stroke-linejoin="round"/>
</svg>
